<svg xmlns="http://www.w3.org/2000/svg" viewBox="0 0 960 540" role="img" aria-labelledby="title desc">
  <title id="title">Генераторы: карта ожидаемых составляющих</title>
  <desc id="desc">Частоты рассчитывают по фактической конструкции и режиму; высота линий условна</desc>
  <rect width="960" height="540" rx="24" fill="#0b1220"/>
  <rect x="24" y="24" width="912" height="492" rx="18" fill="#111c2d" stroke="#2b4667"/>
  <text x="52" y="64" fill="#f1f5f9" font-family="Arial,sans-serif" font-size="25" font-weight="700">Генераторы: карта ожидаемых составляющих</text>
  <path d="M68 112V396H912" fill="none" stroke="#7f94ac" stroke-width="2"/><line x1="68" y1="339.2" x2="912" y2="339.2" stroke="#24364d"/><line x1="68" y1="282.4" x2="912" y2="282.4" stroke="#24364d"/><line x1="68" y1="225.6" x2="912" y2="225.6" stroke="#24364d"/><line x1="68" y1="168.8" x2="912" y2="168.8" stroke="#24364d"/><line x1="165.68518518518516" y1="396" x2="165.68518518518516" y2="223.6688" stroke="#60a5fa" stroke-width="7"/><circle cx="165.68518518518516" cy="223.6688" r="6" fill="#f59e0b"/><text x="165.68518518518516" y="209.6688" text-anchor="middle" fill="#f8fafc" font-family="Arial,sans-serif" font-size="16" font-weight="700">1×</text><line x1="556.4259259259259" y1="396" x2="556.4259259259259" y2="163.12" stroke="#60a5fa" stroke-width="7"/><circle cx="556.4259259259259" cy="163.12" r="6" fill="#f59e0b"/><text x="556.4259259259259" y="149.12" text-anchor="middle" fill="#f8fafc" font-family="Arial,sans-serif" font-size="16" font-weight="700">2 fс</text><line x1="507.58333333333326" y1="396" x2="507.58333333333326" y2="321.4784" stroke="#60a5fa" stroke-width="7"/><circle cx="507.58333333333326" cy="321.4784" r="6" fill="#f59e0b"/><text x="507.58333333333326" y="307.4784" text-anchor="middle" fill="#f8fafc" font-family="Arial,sans-serif" font-size="16" font-weight="700">боковая</text><line x1="605.2685185185185" y1="396" x2="605.2685185185185" y2="321.4784" stroke="#60a5fa" stroke-width="7"/><circle cx="605.2685185185185" cy="321.4784" r="6" fill="#f59e0b"/><text x="605.2685185185185" y="307.4784" text-anchor="middle" fill="#f8fafc" font-family="Arial,sans-serif" font-size="16" font-weight="700">боковая</text><rect x="68" y="420" width="844" height="45" rx="12" fill="#18283d" stroke="#2b4667"/><text x="490" y="449" text-anchor="middle" fill="#cbd5e1" font-family="Arial,sans-serif" font-size="17">Контекст: Валопровод + нагрузка + электрические данные</text>
  <text x="52" y="498" fill="#91a4bb" font-family="Arial,sans-serif" font-size="16">Частоты рассчитывают по фактической конструкции и режиму; высота линий условна</text>
</svg>