<svg xmlns="http://www.w3.org/2000/svg" viewBox="0 0 960 540" role="img" aria-labelledby="title desc">
  <title id="title">Проблемы смазки: подтверждающее представление</title>
  <desc id="desc">Учебный тренд нескольких независимых параметров</desc>
  <rect width="960" height="540" rx="24" fill="#0b1220"/>
  <rect x="24" y="24" width="912" height="492" rx="18" fill="#111c2d" stroke="#2b4667"/>
  <text x="52" y="64" fill="#f1f5f9" font-family="Arial,sans-serif" font-size="25" font-weight="700">Проблемы смазки: подтверждающее представление</text>
  <path d="M80 100V430H900" fill="none" stroke="#7f94ac" stroke-width="2"/>
      <polyline points="80.0,379.6 128.2,344.0 176.5,323.0 224.7,322.3 272.9,335.4 321.2,347.4 369.4,343.9 417.6,320.1 465.9,283.4 514.1,249.2 562.4,231.1 610.6,233.1 658.8,247.1 707.1,257.5 755.3,251.1 803.5,224.7 851.8,187.4 900.0,154.7" fill="none" stroke="#38bdf8" stroke-width="5"/>
      <polyline points="80.0,348.3 128.2,343.3 176.5,356.8 224.7,377.2 272.9,388.5 321.2,380.5 369.4,354.4 417.6,322.6 465.9,301.0 514.1,299.0 562.4,314.5 610.6,334.5 658.8,343.4 707.1,332.3 755.3,304.5 803.5,273.2 851.8,254.1 900.0,255.1" fill="none" stroke="#f59e0b" stroke-width="5"/>
      <polyline points="80.0,350.6 128.2,369.6 176.5,393.4 224.7,406.5 272.9,399.7 321.2,375.8 369.4,348.3 417.6,332.6 465.9,337.0 514.1,357.6 562.4,380.8 610.6,391.3 658.8,381.5 707.1,356.1 755.3,329.4 803.5,316.4 851.8,323.7 900.0,345.7" fill="none" stroke="#a78bfa" stroke-width="5"/>
      <text x="490" y="465" text-anchor="middle" fill="#b8c7d9" font-family="Arial,sans-serif" font-size="17">Время и сопоставимый режим</text>
  <text x="52" y="498" fill="#91a4bb" font-family="Arial,sans-serif" font-size="16">Учебный тренд нескольких независимых параметров</text>
</svg>